<?xml version="1.0" standalone="no"?><!DOCTYPE svg PUBLIC "-//W3C//DTD SVG 1.1//EN" "http://www.w3.org/Graphics/SVG/1.1/DTD/svg11.dtd"><svg t="1589092764626" class="icon" viewBox="0 0 1024 1024" version="1.1" xmlns="http://www.w3.org/2000/svg" p-id="4866" xmlns:xlink="http://www.w3.org/1999/xlink" width="64" height="64"><defs><style type="text/css"></style></defs><path d="M692.8 960c-144 0-260.8-116.8-260.8-260.8s116.8-260.8 260.8-260.8 260.8 116.8 260.8 260.8c1.6 144-116.8 260.8-260.8 260.8z" fill="#96E8BA" p-id="4867"></path><path d="M292.8 219.2c-8 0-14.4-3.2-19.2-9.6-8-11.2-4.8-25.6 4.8-33.6 14.4-9.6 44.8-25.6 60.8-33.6 11.2-6.4 25.6-1.6 32 11.2 6.4 11.2 1.6 25.6-11.2 32-25.6 12.8-46.4 24-54.4 30.4-3.2 1.6-8 3.2-12.8 3.2z" fill="#103E26" p-id="4868"></path><path d="M515.2 916.8c-224 0-408-182.4-408-408 0-100.8 36.8-198.4 105.6-273.6 8-9.6 24-11.2 33.6-1.6 9.6 8 11.2 24 1.6 33.6-59.2 65.6-92.8 152-92.8 241.6 0 198.4 161.6 360 360 360s360-161.6 360-360S713.6 148.8 515.2 148.8c-32 0-62.4 4.8-92.8 12.8-12.8 3.2-25.6-4.8-28.8-16s4.8-25.6 16-28.8c33.6-9.6 68.8-14.4 105.6-14.4 224 0 408 182.4 408 408 0 222.4-182.4 406.4-408 406.4z" fill="#103E26" p-id="4869"></path><path d="M372.8 672c-4.8 0-11.2-1.6-14.4-6.4-4.8-4.8-8-12.8-4.8-20.8L411.2 416c1.6-8 8-12.8 16-16L656 342.4c8-1.6 14.4 0 20.8 4.8 4.8 4.8 8 12.8 4.8 20.8L624 596.8c-1.6 8-8 12.8-16 16L377.6 672h-4.8z m73.6-232l-44.8 182.4 182.4-44.8 44.8-182.4-182.4 44.8z" fill="#103E26" p-id="4870"></path></svg>