<?xml version="1.0" standalone="no"?><!DOCTYPE svg PUBLIC "-//W3C//DTD SVG 1.1//EN" "http://www.w3.org/Graphics/SVG/1.1/DTD/svg11.dtd"><svg t="1589092748775" class="icon" viewBox="0 0 1024 1024" version="1.1" xmlns="http://www.w3.org/2000/svg" p-id="4352" xmlns:xlink="http://www.w3.org/1999/xlink" width="64" height="64"><defs><style type="text/css"></style></defs><path d="M0 0h1024v1024H0z" fill="#FFFFFF" p-id="4353"></path><path d="M680 984H120c-44.112 0-80-35.888-80-80V344c0-44.112 35.888-80 80-80h560c44.112 0 80 35.888 80 80v560c0 44.112-35.888 80-80 80z" fill="#D8DDE3" p-id="4354"></path><path d="M120 304c-22.056 0-40 17.944-40 40v560c0 22.056 17.944 40 40 40h560c22.056 0 40-17.944 40-40V344c0-22.056-17.944-40-40-40H120m0-80h560c66.274 0 120 53.726 120 120v560c0 66.274-53.726 120-120 120H120c-66.274 0-120-53.726-120-120V344c0-66.274 53.726-120 120-120z" fill="#505873" p-id="4355"></path><path d="M904 760H344c-44.112 0-80-35.888-80-80V120c0-44.112 35.888-80 80-80h560c44.112 0 80 35.888 80 80v560c0 44.112-35.888 80-80 80z" fill="#FFFFFF" p-id="4356"></path><path d="M344 80c-22.056 0-40 17.944-40 40v560c0 22.056 17.944 40 40 40h560c22.056 0 40-17.944 40-40V120c0-22.056-17.944-40-40-40H344m0-80h560c66.274 0 120 53.726 120 120v560c0 66.274-53.726 120-120 120H344c-66.274 0-120-53.726-120-120V120c0-66.274 53.726-120 120-120z" fill="#505873" p-id="4357"></path><path d="M404 244h442a40 40 0 0 1 0 80H404a40 40 0 0 1 0-80z" fill="#FF402A" p-id="4358"></path><path d="M404 400h222a40 40 0 0 1 0 80H404a40 40 0 0 1 0-80z" fill="#FF402A" p-id="4359"></path></svg>