<?xml version="1.0" standalone="no"?><!DOCTYPE svg PUBLIC "-//W3C//DTD SVG 1.1//EN" "http://www.w3.org/Graphics/SVG/1.1/DTD/svg11.dtd"><svg t="1589092735819" class="icon" viewBox="0 0 1024 1024" version="1.1" xmlns="http://www.w3.org/2000/svg" p-id="3484" xmlns:xlink="http://www.w3.org/1999/xlink" width="64" height="64"><defs><style type="text/css"></style></defs><path d="M794 462.7s19.4-318.1-274.4-318.1S221.4 413 221.4 413c13.1 0.5-148.7 1.2-158.4 180.4-9.5 175.5 169.1 194.9 167 196.2h498.1c-0.7-2.3 230.5 7.5 232.3-157.3C962.2 461.6 794 462.7 794 462.7zM688.7 730.9H281.4c0.5 0 0.4 0 0 0-7.9-0.3-145-8.7-142.6-135.3 2.4-128.7 132.1-120.8 134.5-126.7 0 0 4.6-265.5 244.9-265.5S732.4 521 732.4 521c2.4 13.6 146.8-18.2 148.6 94 2.3 139.3-193.3 113.7-192.3 115.9z" p-id="3485"></path><path d="M449 366.6h127v168.3H449z" fill="#FF0000" p-id="3486"></path><path d="M650.3 504.8L512.4 642.7 374.6 504.8z" fill="#FF0000" p-id="3487"></path></svg>