<?xml version="1.0" standalone="no"?><!DOCTYPE svg PUBLIC "-//W3C//DTD SVG 1.1//EN" "http://www.w3.org/Graphics/SVG/1.1/DTD/svg11.dtd"><svg t="1636288904102" class="icon" viewBox="0 0 1024 1024" version="1.1" xmlns="http://www.w3.org/2000/svg" p-id="17349" xmlns:xlink="http://www.w3.org/1999/xlink" width="200" height="200"><defs><style type="text/css"></style></defs><path d="M514.048 507.904m-502.272 0a502.272 502.272 0 1 0 1004.544 0 502.272 502.272 0 1 0-1004.544 0Z" fill="#2AB2BE" p-id="17350"></path><path d="M579.072 632.32c0 13.824-11.264 24.576-24.576 24.576h-322.048c-13.824 0-24.576-11.264-24.576-24.576v-286.72L332.8 229.888h221.696c13.824 0 24.576 11.264 24.576 24.576v377.856z" fill="#1C767E" p-id="17351"></path><path d="M329.728 226.304v115.2H204.8z" fill="#55C1CB" p-id="17352"></path><path d="M519.68 605.696h-223.232c-3.072 0-5.12-2.56-5.12-5.12V409.6c0-3.072 2.56-5.12 5.12-5.12h223.232c3.072 0 5.12 2.56 5.12 5.12v190.976c0.512 2.56-2.048 5.12-5.12 5.12z m-218.112-10.752h212.48V414.72h-212.48v180.224z" fill="#15595F" p-id="17353"></path><path d="M350.208 605.696c-3.072 0-5.12-2.56-5.12-5.12V409.6c0-3.072 2.56-5.12 5.12-5.12 3.072 0 5.12 2.56 5.12 5.12v190.976c0.512 2.56-2.048 5.12-5.12 5.12z" fill="#15595F" p-id="17354"></path><path d="M519.68 463.36h-223.232c-3.072 0-5.12-2.56-5.12-5.12 0-3.072 2.56-5.12 5.12-5.12h223.232c3.072 0 5.12 2.56 5.12 5.12 0.512 2.56-2.048 5.12-5.12 5.12zM519.68 509.952h-223.232c-3.072 0-5.12-2.56-5.12-5.12 0-3.072 2.56-5.12 5.12-5.12h223.232c3.072 0 5.12 2.56 5.12 5.12 0.512 3.072-2.048 5.12-5.12 5.12zM519.68 555.52h-223.232c-3.072 0-5.12-2.56-5.12-5.12 0-3.072 2.56-5.12 5.12-5.12h223.232c3.072 0 5.12 2.56 5.12 5.12 0.512 2.56-2.048 5.12-5.12 5.12z" fill="#15595F" p-id="17355"></path><path d="M799.744 765.952c0 14.336-11.776 25.6-25.6 25.6h-335.872c-14.336 0-25.6-11.776-25.6-25.6V466.944L542.72 346.112h231.424c14.336 0 25.6 11.776 25.6 25.6v394.24z" fill="#F2F2F2" p-id="17356"></path><path d="M542.208 346.112V466.432h-130.048z" fill="#CCCCCC" p-id="17357"></path><path d="M716.8 596.992h-196.608c-3.072 0-6.144-3.072-6.144-7.168 0-4.096 2.56-7.168 6.144-7.168H716.8c3.072 0 6.144 3.072 6.144 7.168-0.512 3.584-3.072 7.168-6.144 7.168zM716.8 654.848h-196.608c-3.072 0-6.144-3.072-6.144-7.168s2.56-7.168 6.144-7.168H716.8c3.072 0 6.144 3.072 6.144 7.168s-3.072 7.168-6.144 7.168zM618.496 713.216h-98.304c-3.072 0-6.144-3.072-6.144-7.168s2.56-7.168 6.144-7.168h98.304c3.072 0 6.144 3.072 6.144 7.168s-3.072 7.168-6.144 7.168z" fill="#B3B3B3" p-id="17358"></path><path d="M718.336 536.576h-196.608c-3.072 0-6.144-3.072-6.144-7.168 0-4.096 2.56-7.168 6.144-7.168h196.608c3.072 0 6.144 3.072 6.144 7.168 0 4.096-3.072 7.168-6.144 7.168z" fill="#B3B3B3" p-id="17359"></path></svg>