<?xml version="1.0" standalone="no"?><!DOCTYPE svg PUBLIC "-//W3C//DTD SVG 1.1//EN" "http://www.w3.org/Graphics/SVG/1.1/DTD/svg11.dtd"><svg t="1636288852743" class="icon" viewBox="0 0 1024 1024" version="1.1" xmlns="http://www.w3.org/2000/svg" p-id="14747" xmlns:xlink="http://www.w3.org/1999/xlink" width="200" height="200"><defs><style type="text/css"></style></defs><path d="M179.2 153.6m89.6 0l588.8 0q89.6 0 89.6 89.6l0 486.4q0 89.6-89.6 89.6l-588.8 0q-89.6 0-89.6-89.6l0-486.4q0-89.6 89.6-89.6Z" fill="#FF9C55" p-id="14748"></path><path d="M25.6 193.4208A91.0208 91.0208 0 0 1 116.6208 102.4H382.592a91.0208 91.0208 0 0 1 87.5008 65.9712l24.5504 85.7216h412.7488A91.0208 91.0208 0 0 1 998.4 345.1392v485.4528A91.0208 91.0208 0 0 1 907.3792 921.6H116.608A91.0208 91.0208 0 0 1 25.6 830.5792V193.408z" fill="#FFD977" p-id="14749"></path><path d="M128 665.6m25.6 0l76.8 0q25.6 0 25.6 25.6l0 0q0 25.6-25.6 25.6l-76.8 0q-25.6 0-25.6-25.6l0 0q0-25.6 25.6-25.6Z" fill="#FFF1C9" p-id="14750"></path><path d="M128 768m25.6 0l179.2 0q25.6 0 25.6 25.6l0 0q0 25.6-25.6 25.6l-179.2 0q-25.6 0-25.6-25.6l0 0q0-25.6 25.6-25.6Z" fill="#FFF1C9" p-id="14751"></path><path d="M128 486.4m51.2 0l0 0q51.2 0 51.2 51.2l0 0q0 51.2-51.2 51.2l0 0q-51.2 0-51.2-51.2l0 0q0-51.2 51.2-51.2Z" fill="#FFA86A" p-id="14752"></path></svg>