<?xml version="1.0" standalone="no"?><!DOCTYPE svg PUBLIC "-//W3C//DTD SVG 1.1//EN" "http://www.w3.org/Graphics/SVG/1.1/DTD/svg11.dtd"><svg t="1636289031092" class="icon" viewBox="0 0 1024 1024" version="1.1" xmlns="http://www.w3.org/2000/svg" p-id="22659" xmlns:xlink="http://www.w3.org/1999/xlink" width="200" height="200"><defs><style type="text/css"></style></defs><path d="M66.56 450.048c0 248.832 201.216 450.048 450.048 450.048s450.048-201.216 450.048-450.048c0-248.832-201.216-450.048-450.048-450.048S66.56 201.216 66.56 450.048z" fill="#00BAC7" p-id="22660"></path><path d="M131.072 559.616c0 49.664 40.448 90.112 90.112 90.112 49.664 0 90.112-40.448 90.112-90.112 0-49.664-40.448-90.112-90.112-90.112s-90.112 40.448-90.112 90.112z" fill="#95E3EA" p-id="22661"></path><path d="M181.76 559.616c0 21.504 17.408 39.424 39.424 39.424s39.424-17.408 39.424-39.424c0-21.504-17.408-39.424-39.424-39.424-21.504 0-39.424 17.92-39.424 39.424z" fill="#5FBFCF" p-id="22662"></path><path d="M721.92 559.616c0 49.664 40.448 90.112 90.112 90.112 49.664 0 90.112-40.448 90.112-90.112 0-49.664-40.448-90.112-90.112-90.112-49.664 0-90.112 40.448-90.112 90.112z" fill="#95E3EA" p-id="22663"></path><path d="M772.608 559.616c0 21.504 17.408 39.424 39.424 39.424 21.504 0 39.424-17.408 39.424-39.424 0-21.504-17.408-39.424-39.424-39.424-21.504 0-39.424 17.92-39.424 39.424z" fill="#5FBFCF" p-id="22664"></path><path d="M854.016 706.048c0 185.856-148.992 317.952-331.776 317.952s-329.216-132.096-329.216-317.952 140.8-269.824 323.584-269.824 337.408 83.968 337.408 269.824z" fill="#95E3EA" p-id="22665"></path><path d="M527.872 948.224h-11.264c-30.72 0-53.248-25.088-53.248-53.248v-73.216h118.272v73.216c-0.512 30.72-25.6 53.248-53.76 53.248zM485.888 630.272c0 58.88-47.616 103.936-107.008 103.936s-107.008-41.984-107.008-103.936 47.616-98.304 107.008-98.304 107.008 36.352 107.008 98.304z" fill="#FFFFFF" p-id="22666"></path><path d="M294.4 635.904c0 16.896 13.824 30.72 30.72 30.72s30.72-13.824 30.72-30.72-13.824-30.72-30.72-30.72c-16.896-0.512-30.72 13.312-30.72 30.72z" fill="#1C1C1C" p-id="22667"></path><path d="M325.12 644.096c0 6.144 5.12 11.264 11.264 11.264 6.144 0 11.264-5.12 11.264-11.264 0-6.144-5.12-11.264-11.264-11.264-6.144 0-11.264 5.12-11.264 11.264zM766.976 630.272c0 58.88-47.616 103.936-107.008 103.936s-107.008-41.984-107.008-103.936 47.616-98.304 107.008-98.304c59.392-0.512 107.008 36.352 107.008 98.304z" fill="#FFFFFF" p-id="22668"></path><path d="M572.928 635.904c0 16.896 13.824 30.72 30.72 30.72s30.72-13.824 30.72-30.72-13.824-30.72-30.72-30.72c-16.896-0.512-30.72 13.312-30.72 30.72z" fill="#1C1C1C" p-id="22669"></path><path d="M603.648 644.096c0 6.144 5.12 11.264 11.264 11.264 6.144 0 11.264-5.12 11.264-11.264 0-6.144-5.12-11.264-11.264-11.264-6.144 0-11.264 5.12-11.264 11.264z" fill="#FFFFFF" p-id="22670"></path><path d="M449.024 852.48c-13.824 0-30.72-8.192-36.352-22.528-11.264-19.456-2.56-45.056 16.896-56.32 28.16-16.896 56.32-25.088 95.744-25.088 30.72 0 53.248 5.632 78.848 16.896 22.528 8.192 30.72 33.792 22.528 56.32-8.192 22.528-33.792 30.72-56.32 22.528-19.456-8.192-28.16-11.264-45.056-11.264-22.528 0-36.352 5.632-56.32 16.896-8.704 2.56-14.336 2.56-19.968 2.56z" fill="#D3B46B" p-id="22671"></path><path d="M452.096 756.736c0 21.504 29.184 39.424 64.512 39.424 35.84 0 64.512-17.408 64.512-39.424 0-21.504-29.184-39.424-64.512-39.424s-64.512 17.92-64.512 39.424z" fill="#1C1C1C" p-id="22672"></path><path d="M525.312 351.744c-11.264 13.824-25.088 22.528-45.056 30.72-19.456 5.632-41.984 11.264-64.512 11.264-25.088 0-47.616-5.632-64.512-16.896-19.456-11.264-33.792-25.088-41.984-47.616C297.472 309.248 291.84 284.16 291.84 256v-19.456c0-28.16 5.632-53.248 13.824-73.216 8.192-19.456 22.528-36.352 41.984-47.616 16.896-11.264 39.424-16.896 64.512-16.896 33.792 0 61.952 8.192 78.848 25.088 16.896 16.896 30.72 39.424 33.792 70.144h-56.32c-2.56-16.896-8.192-28.16-16.896-36.352-8.192-8.192-22.528-11.264-36.352-11.264-19.456 0-36.352 8.192-45.056 22.528-11.264 13.824-16.896 36.352-16.896 67.584v16.896c0 30.72 5.632 53.248 16.896 67.584 11.264 13.824 28.16 22.528 50.688 22.528s39.424-5.632 47.616-13.824v-47.616H415.232v-41.984h112.64v112.64h-2.56z m33.792-70.656c0-22.528 2.56-39.424 11.264-56.32s19.456-28.16 33.792-39.424c13.824-8.192 33.792-13.824 53.248-13.824 28.16 0 53.248 8.192 70.144 25.088 16.896 16.896 28.16 41.984 30.72 70.144v13.824c0 33.792-8.192 58.88-28.16 78.848-16.896 19.456-41.984 30.72-73.216 30.72s-56.32-8.192-73.216-28.16c-13.312-18.944-24.576-44.032-24.576-80.896z m58.88 3.072c0 19.456 2.56 36.352 11.264 47.616 8.192 11.264 19.456 16.896 33.792 16.896s25.088-5.632 30.72-16.896c8.192-11.264 11.264-28.16 11.264-50.688 0-19.456-2.56-36.352-11.264-45.056-8.192-11.264-19.456-16.896-33.792-16.896-13.824 0-25.088 5.632-30.72 16.896-8.704 8.704-11.264 25.6-11.264 48.128z" fill="#FFFFFF" p-id="22673"></path></svg>