<?xml version="1.0" standalone="no"?><!DOCTYPE svg PUBLIC "-//W3C//DTD SVG 1.1//EN" "http://www.w3.org/Graphics/SVG/1.1/DTD/svg11.dtd"><svg t="1636288988652" class="icon" viewBox="0 0 1024 1024" version="1.1" xmlns="http://www.w3.org/2000/svg" p-id="21657" xmlns:xlink="http://www.w3.org/1999/xlink" width="200" height="200"><defs><style type="text/css"></style></defs><path d="M1024 512c0-199.68-56.32-317.44-143.36-394.24-102.4-92.16-225.28-117.76-368.64-117.76S245.76 25.6 143.36 117.76C56.32 194.56 0 312.32 0 512s56.32 317.44 143.36 394.24c102.4 92.16 225.28 117.76 368.64 117.76s266.24-25.6 368.64-117.76c87.04-76.8 143.36-194.56 143.36-394.24z" fill="#070706" p-id="21658"></path><path d="M445.952 676.352L366.592 361.984v340.48c0 18.944-4.096 32.768-12.8 42.496-8.192 9.216-19.456 14.336-33.28 14.336-13.312 0-24.576-4.608-32.768-13.824-8.704-9.216-12.8-23.552-12.8-42.496V311.808c0-21.504 5.632-35.84 16.896-43.52 11.264-7.68 26.112-11.264 45.568-11.264h30.72c18.432 0 32.256 1.536 40.448 5.12 8.192 3.584 14.848 9.216 18.432 18.432 4.096 8.704 8.704 23.04 13.824 42.496l71.68 270.336 71.68-270.336c5.12-19.968 9.728-33.792 13.824-42.496 4.096-8.704 10.24-14.848 18.432-18.432 8.192-3.584 22.016-5.12 40.448-5.12h30.72c18.944 0 34.304 3.584 45.568 11.264 11.264 7.68 16.896 22.016 16.896 43.52v390.656c0 18.944-4.096 32.768-12.8 42.496-8.192 9.216-19.456 14.336-33.792 14.336-13.312 0-24.064-4.608-32.768-14.336-8.704-9.216-12.8-23.552-12.8-42.496V361.984l-78.848 314.368c-5.12 20.48-9.216 35.328-12.8 45.056-3.072 9.728-9.216 18.432-17.92 26.112-8.704 7.68-20.992 11.776-36.352 11.776-11.776 0-21.504-2.56-29.696-7.68-8.192-5.12-14.336-11.264-18.944-19.456-4.608-7.68-8.192-16.384-10.752-26.112-1.536-9.728-4.096-19.456-6.656-29.696z" fill="#FFFFFF" p-id="21659"></path></svg>