<?xml version="1.0" standalone="no"?><!DOCTYPE svg PUBLIC "-//W3C//DTD SVG 1.1//EN" "http://www.w3.org/Graphics/SVG/1.1/DTD/svg11.dtd"><svg t="1632585421162" class="icon" viewBox="0 0 1102 1024" version="1.1" xmlns="http://www.w3.org/2000/svg" p-id="4680" xmlns:xlink="http://www.w3.org/1999/xlink" width="215.234375" height="200"><defs><style type="text/css"></style></defs><path d="M1055.508 842.83H149.662C70.892 842.83 0 779.816 0 693.17V149.661C0 63.015 63.015 0 149.662 0h764.061c78.77 0 149.662 63.015 149.662 149.662V842.83zM149.662 78.77c-39.385 0-70.893 31.507-70.893 70.892v543.507c0 39.385 31.508 70.893 70.893 70.893h834.953v-614.4c-7.877-39.385-39.384-70.893-70.892-70.893H149.662z m63.015 850.707H842.83v78.77H212.677z" fill="#1296db" p-id="4681"></path><path d="M480.492 567.138h362.339v78.77H480.492z m-212.677 63.016l-55.138-55.139 157.538-157.538-173.292-181.17 55.139-55.138 228.43 236.308z" fill="#1296db" p-id="4682"></path></svg>