<?xml version="1.0" standalone="no"?><!DOCTYPE svg PUBLIC "-//W3C//DTD SVG 1.1//EN" "http://www.w3.org/Graphics/SVG/1.1/DTD/svg11.dtd"><svg t="1636288767040" class="icon" viewBox="0 0 1024 1024" version="1.1" xmlns="http://www.w3.org/2000/svg" p-id="11529" xmlns:xlink="http://www.w3.org/1999/xlink" width="200" height="200"><defs><style type="text/css"></style></defs><path d="M1023.910943 511.999898c5.11911 317.794367-194.116663 516.825376-511.91103 511.911029-317.794367 4.914346-516.825376-194.116663-511.91103-511.911029C-4.825463 194.20553 194.205546-4.825478 511.999913 0.088868c317.794367-4.914346 516.825376 194.116663 511.91103 511.91103z" fill="#4ED89D" p-id="11530"></path><path d="M1022.477592 566.671996C1006.915497 340.40732 852.318366 201.16752 614.382119 204.85328c-254.112635-4.095288-413.624112 155.416189-409.528824 409.528824-3.890524 237.936247 135.554041 392.533378 361.613952 408.095473 268.036615-16.381153 439.629192-187.97373 456.010345-455.805581z" fill="#44D39C" p-id="11531"></path><path d="M1015.515602 629.944199C985.824762 491.523456 876.480566 407.160519 716.764325 409.617692c-190.635668-3.071466-310.218084 116.51095-307.146618 307.146618-2.457173 159.716241 81.905765 269.060437 220.121743 298.751277 211.112109-34.400421 351.375731-174.664043 385.776152-385.571388z" fill="#3ACC97" p-id="11532"></path><path d="M997.701098 705.707031C964.734028 646.734881 902.076118 613.153517 819.146531 614.382104c-127.1587-2.047644-206.812056 77.605712-204.764412 204.764412-1.433351 82.929587 32.352777 145.587497 91.120163 178.554567a431.233852 431.233852 0 0 0 292.198816-291.994052z" fill="#30C694" p-id="11533"></path><path d="M380.745925 839.622957a196.369071 196.369071 0 0 1-139.035036-335.404107l87.434404-87.434404a31.738484 31.738484 0 0 1 44.843406 44.843406L286.75906 549.062256a133.096868 133.096868 0 0 0 188.383259 188.383259l87.434404-87.434404a31.738484 31.738484 0 0 1 44.843406 44.843406l-87.434404 87.434404a195.959542 195.959542 0 0 1-139.2398 57.334036zM672.330448 616.634512a31.738484 31.738484 0 0 1-22.319321-54.057805L737.240766 474.937539a133.096868 133.096868 0 0 0-188.383259-188.383259l-87.434404 87.434404a31.738484 31.738484 0 0 1-44.843406-44.843406l87.434404-87.434404a196.573835 196.573835 0 0 1 278.070071 278.070071l-87.434403 87.434404a31.533719 31.533719 0 0 1-22.319321 9.419163z" fill="#BDEFD1" p-id="11534"></path><path d="M439.103782 637.725247a52.829218 52.829218 0 0 1-37.267123-90.096342l145.792262-145.792261a52.829218 52.829218 0 0 1 74.73901 74.73901l-145.792261 145.792262a52.624454 52.624454 0 0 1-37.471888 15.357331z" fill="#FFFFFF" p-id="11535"></path></svg>